<?xml version="1.0" standalone="no"?>
<!DOCTYPE svg PUBLIC "-//W3C//DTD SVG 20010904//EN"
 "http://www.w3.org/TR/2001/REC-SVG-20010904/DTD/svg10.dtd">
<svg version="1.0" xmlns="http://www.w3.org/2000/svg"
 width="873.000000pt" height="1280.000000pt" viewBox="0 0 873.000000 1280.000000"
 preserveAspectRatio="xMidYMid meet">
<metadata>
Created by potrace 1.15, written by Peter Selinger 2001-2017
</metadata>
<g transform="translate(0.000000,1280.000000) scale(0.100000,-0.100000)"
fill="#000000" stroke="none">
<path d="M5056 11390 c-169 -21 -332 -72 -485 -150 l-94 -49 -36 18 c-82 42
-224 91 -336 117 -109 25 -138 28 -310 28 -160 0 -206 -3 -293 -22 -558 -121
-980 -532 -1119 -1087 -24 -99 -27 -128 -27 -290 -1 -170 1 -184 27 -262 156
-463 792 -1214 1532 -1809 258 -208 527 -374 605 -374 19 0 20 -6 20 -194 0
-365 -40 -561 -205 -996 -153 -405 -212 -647 -238 -988 l-12 -147 -27 45 c-96
165 -229 237 -417 228 -89 -5 -205 -30 -215 -47 -9 -13 44 -126 90 -194 106
-155 247 -216 436 -189 46 7 95 15 111 18 27 6 27 6 27 -50 0 -103 30 -339 61
-486 17 -80 33 -157 36 -172 l5 -28 -128 0 c-71 0 -172 -3 -224 -5 -441 -24
-671 -38 -825 -50 -99 -9 -227 -18 -284 -22 l-103 -6 6 -46 c5 -44 167 -1720
224 -2316 l27 -290 42 -23 c91 -50 322 -94 653 -124 180 -16 967 -16 1165 0
307 25 543 63 684 108 42 13 81 27 88 32 8 5 30 235 67 692 30 377 79 972 108
1322 28 351 50 640 47 643 -10 9 -256 45 -414 60 -214 20 -581 35 -851 35
l-221 0 -17 128 c-18 141 -36 377 -36 491 0 66 2 72 18 66 50 -20 175 -46 246
-51 111 -9 215 9 306 52 134 63 279 237 343 409 11 31 18 57 16 60 -3 2 -45
16 -94 31 -81 25 -105 28 -245 28 -140 1 -161 -2 -213 -23 -132 -52 -253 -166
-331 -308 l-37 -68 6 90 c15 198 63 462 125 675 15 53 67 207 115 341 86 240
141 431 167 579 14 85 18 477 5 606 l-8 82 65 30 c341 159 1098 875 1526 1442
224 296 373 558 437 765 25 82 27 104 27 240 0 115 -6 174 -22 252 -123 575
-560 1013 -1130 1133 -111 24 -356 34 -466 20z"/>
</g>
</svg>
