<?xml version="1.0" standalone="no"?>
<!DOCTYPE svg PUBLIC "-//W3C//DTD SVG 20010904//EN"
 "http://www.w3.org/TR/2001/REC-SVG-20010904/DTD/svg10.dtd">
<svg version="1.0" xmlns="http://www.w3.org/2000/svg" fill="white"
 width="1080.000000pt" height="991.000000pt" viewBox="0 0 1080.000000 991.000000"
 preserveAspectRatio="xMidYMid meet">

<g transform="translate(0.000000,991.000000) scale(0.100000,-0.100000)"
fill="#000000" stroke="none">
<path d="M3721 7799 c-44 -13 -107 -53 -154 -98 -41 -38 -79 -93 -139 -201
-20 -36 -51 -81 -69 -100 -55 -59 -187 -227 -240 -306 -64 -95 -82 -98 -74
-11 4 34 11 89 16 122 11 78 12 360 0 405 -5 19 -12 47 -15 63 -10 41 -33 33
-71 -27 -62 -97 -88 -193 -93 -338 -5 -147 12 -222 76 -339 l36 -66 -73 -147
c-69 -140 -141 -317 -155 -384 -9 -36 -33 -62 -40 -41 -5 16 -15 136 -25 284
-6 109 -25 155 -61 155 -26 0 -76 -70 -95 -133 -43 -146 14 -376 122 -488 l34
-36 -12 -104 c-21 -177 -16 -408 10 -539 29 -139 19 -143 -64 -28 -110 152
-224 248 -293 248 -27 0 -29 -26 -6 -93 27 -79 74 -156 136 -222 68 -73 131
-116 224 -154 62 -25 67 -30 86 -76 11 -28 24 -58 29 -67 5 -10 9 -27 9 -37 0
-11 5 -23 10 -26 6 -3 10 -14 10 -23 0 -9 43 -103 95 -209 91 -184 103 -213
89 -213 -4 0 -51 27 -106 61 -117 73 -182 99 -243 99 -53 0 -64 -15 -44 -63
45 -113 156 -215 280 -257 54 -19 78 -21 152 -17 l87 6 24 -32 c14 -18 65 -86
115 -153 49 -66 133 -166 185 -221 53 -56 96 -106 96 -113 0 -13 -10 -12 -130
15 -92 21 -273 25 -291 8 -31 -31 113 -129 256 -174 55 -18 208 -16 277 3 l57
16 95 -63 c127 -84 250 -143 379 -182 50 -15 103 -14 62 1 -188 71 -173 58
-191 159 -20 115 -201 377 -260 377 -35 0 11 -167 77 -282 64 -110 51 -115
-77 -26 -104 72 -240 183 -276 227 -22 26 -27 44 -32 118 -16 235 -128 497
-201 469 -27 -10 -18 -104 27 -269 11 -42 18 -80 15 -84 -4 -3 -16 2 -28 13
-24 22 -161 216 -201 284 -131 228 -158 278 -163 301 -4 19 3 45 23 86 51 100
62 157 62 310 0 133 -19 276 -40 297 -16 16 -39 -3 -65 -53 -42 -83 -58 -172
-58 -309 1 -114 0 -122 -16 -108 -9 8 -23 36 -30 63 -8 26 -17 53 -21 58 -23
30 -91 332 -104 453 l-5 52 57 48 c101 83 173 194 223 345 36 111 47 181 29
192 -14 9 -102 -79 -155 -156 -52 -75 -115 -183 -115 -199 0 -17 -37 -44 -44
-32 -18 30 65 470 108 565 8 17 22 56 31 85 18 57 36 72 87 73 85 2 226 79
332 183 121 118 169 196 121 196 -30 0 -225 -93 -305 -145 -81 -53 -110 -65
-110 -46 0 34 210 352 331 502 80 99 82 100 197 158 135 68 208 122 253 189
37 54 100 193 93 204 -7 11 -81 9 -123 -3z"/>
<path d="M6960 7792 c0 -35 89 -197 133 -242 58 -59 106 -89 228 -147 82 -39
113 -59 135 -89 16 -22 61 -79 99 -129 102 -129 275 -404 275 -434 0 -21 -27
-11 -86 31 -118 82 -316 170 -337 149 -34 -34 185 -258 318 -325 28 -15 84
-33 125 -42 41 -8 80 -20 87 -27 17 -18 91 -240 114 -342 40 -179 61 -365 41
-365 -12 0 -42 34 -42 48 0 38 -156 260 -227 322 -31 27 -37 30 -45 17 -21
-38 57 -272 128 -383 38 -60 113 -140 160 -171 25 -16 26 -19 19 -92 -11 -123
-66 -347 -123 -499 -35 -96 -42 -88 -42 44 0 137 -22 243 -66 325 -28 51 -58
65 -68 32 -25 -85 -36 -170 -36 -278 0 -139 16 -217 61 -307 42 -82 41 -83
-39 -234 -38 -73 -157 -262 -208 -331 -24 -32 -55 -75 -70 -95 -31 -43 -60
-52 -50 -15 55 185 71 322 40 334 -24 9 -68 -40 -107 -120 -58 -120 -86 -230
-89 -357 -2 -95 8 -79 -122 -195 -85 -77 -268 -205 -291 -205 -20 0 -19 17 4
48 40 58 82 152 102 231 11 45 18 85 15 88 -22 23 -108 -60 -192 -187 -40 -60
-84 -165 -84 -200 0 -16 -5 -40 -11 -54 -11 -23 -25 -31 -141 -77 -31 -12 -55
-26 -53 -30 6 -8 27 -4 100 18 48 15 70 23 153 59 44 20 189 104 250 146 31
21 51 29 70 25 129 -24 165 -28 223 -24 36 3 93 15 128 27 106 35 243 133 225
161 -3 5 -56 9 -117 9 -86 0 -136 -6 -212 -25 -118 -29 -105 -28 -105 -12 0 7
14 26 31 43 97 91 266 297 359 436 32 48 43 52 103 36 42 -10 58 -10 120 6
147 38 247 114 310 237 47 90 40 104 -42 96 -60 -7 -146 -45 -249 -113 -37
-24 -70 -44 -74 -44 -18 0 -4 36 68 182 71 141 159 350 171 407 4 18 23 31 72
53 36 16 82 37 101 46 35 17 200 176 200 192 0 5 11 25 24 45 31 45 69 157 60
178 -3 10 -15 17 -26 17 -26 0 -106 -45 -147 -83 -39 -38 -126 -144 -166 -204
-32 -50 -60 -58 -51 -15 27 132 38 279 32 437 -3 94 -9 196 -12 228 -6 55 -5
59 30 97 19 22 50 68 67 102 84 165 79 407 -11 493 -25 24 -33 27 -53 18 -29
-14 -47 -85 -47 -190 0 -100 -21 -253 -34 -253 -6 0 -24 42 -41 93 -16 50 -32
99 -36 107 -4 8 -11 26 -17 40 -40 97 -63 147 -110 237 l-52 102 44 83 c24 46
52 116 62 156 35 150 0 368 -83 505 -54 89 -72 78 -93 -64 -16 -108 2 -481 25
-518 3 -6 3 -20 0 -31 -10 -30 -27 -15 -96 85 -67 97 -89 126 -189 244 -36 42
-95 126 -130 186 -36 61 -85 131 -110 156 -59 59 -142 99 -219 106 -57 5 -61
4 -61 -15z"/>
<path d="M5889 7326 c42 -45 27 -58 -88 -80 -87 -16 -101 -21 -87 -31 9 -7 49
-15 89 -19 238 -21 255 -25 321 -76 58 -44 174 -169 220 -236 11 -17 43 -60
70 -95 l48 -64 -5 46 c-7 71 -55 185 -106 253 -26 34 -45 68 -43 74 5 15 41
16 76 2 37 -14 32 1 -11 30 -131 89 -420 220 -486 220 -20 0 -20 0 2 -24z"/>
<path d="M5760 7321 c0 -11 39 -25 47 -18 3 3 2 10 -2 16 -8 13 -45 15 -45 2z"/>
<path d="M4764 7185 c22 -17 46 -20 46 -6 0 5 -10 11 -22 15 -37 9 -44 6 -24
-9z"/>
<path d="M4800 7146 c0 -9 5 -16 10 -16 6 0 10 4 10 9 0 6 -4 13 -10 16 -5 3
-10 -1 -10 -9z"/>
<path d="M4760 7020 c0 -5 5 -10 10 -10 6 0 10 5 10 10 0 6 -4 10 -10 10 -5 0
-10 -4 -10 -10z"/>
<path d="M6177 6808 c-41 -63 -91 -117 -130 -142 -33 -20 -173 -25 -229 -7
-18 5 -67 17 -108 27 -41 9 -122 29 -179 45 -57 16 -107 26 -110 23 -8 -8 25
-33 159 -121 166 -109 224 -155 228 -182 5 -29 -18 -85 -63 -155 -19 -30 -35
-58 -35 -61 0 -3 -19 -31 -42 -62 -24 -30 -56 -73 -72 -95 -15 -22 -40 -52
-55 -68 -14 -15 -44 -50 -66 -76 -22 -26 -52 -61 -67 -78 -26 -29 -35 -46 -23
-46 9 0 216 109 272 143 29 18 74 45 100 61 113 67 188 123 259 192 42 41 81
74 88 74 35 0 134 -104 311 -325 85 -106 105 -127 105 -107 0 18 -71 249 -91
297 -56 131 -129 261 -186 329 -20 24 -24 37 -19 65 19 126 24 183 19 238 -8
90 -23 97 -66 31z"/>
<path d="M5816 6834 c-21 -21 -20 -29 7 -55 52 -50 157 -67 177 -28 33 61
-132 136 -184 83z"/>
<path d="M4035 6822 c-17 -12 -118 -143 -159 -205 -85 -130 -204 -398 -234
-527 -50 -213 -45 -219 38 -51 52 102 110 181 135 181 15 0 25 -22 25 -55 0
-43 38 -145 80 -214 57 -95 201 -230 176 -166 -15 41 -60 198 -73 255 -20 93
-29 312 -14 347 7 15 35 44 62 63 27 19 100 75 162 123 62 48 130 101 151 117
48 37 31 38 -66 5 -274 -96 -292 -100 -312 -79 -21 20 -21 25 14 123 30 86 32
95 15 83z"/>
<path d="M4113 6767 c-49 -38 -68 -70 -49 -86 27 -23 122 70 109 107 -7 18
-13 15 -60 -21z"/>
<path d="M6672 6658 c-15 -19 1 -49 47 -91 46 -41 53 -44 71 -22 16 19 -20 79
-64 106 -37 22 -40 23 -54 7z"/>
<path d="M6847 6566 c7 -54 -2 -92 -22 -99 -8 -4 -109 25 -225 64 -116 39
-216 69 -222 67 -7 -3 61 -56 151 -119 264 -185 265 -186 269 -245 7 -103 -54
-288 -173 -524 -27 -53 -32 -70 -20 -70 22 0 168 132 225 204 51 63 120 190
120 220 0 23 27 31 47 15 18 -15 96 -177 107 -221 3 -16 11 -28 16 -28 35 0
-47 299 -114 418 -18 31 -37 66 -43 77 -6 11 -19 48 -28 82 -21 83 -67 196
-81 200 -8 3 -10 -10 -7 -41z"/>
<path d="M3925 5779 c-3 -13 -12 -67 -20 -119 -8 -52 -19 -121 -25 -152 -5
-32 -14 -84 -20 -115 -5 -32 -18 -69 -28 -83 -20 -27 -76 -48 -129 -49 -18 -1
-33 -5 -33 -9 0 -29 121 -109 177 -118 35 -5 53 -20 138 -111 133 -142 318
-288 453 -357 48 -25 41 -1 -19 64 -158 169 -253 301 -247 342 3 21 11 24 98
34 112 14 277 56 445 114 146 50 195 71 195 81 0 4 -118 5 -263 2 -286 -7
-534 8 -574 33 -12 8 -26 31 -31 51 -5 21 -29 119 -52 218 -23 99 -46 184 -51
189 -4 5 -10 -2 -14 -15z"/>
<path d="M5768 5509 c-18 -12 -1 -36 29 -42 38 -7 56 8 40 34 -11 18 -46 22
-69 8z"/>
<path d="M3722 5498 c-25 -25 -7 -120 25 -132 30 -12 53 13 53 57 0 68 -43
110 -78 75z"/>
<path d="M7090 5420 c-12 -23 -18 -96 -8 -105 8 -8 55 22 61 39 3 7 2 28 -2
47 -8 40 -35 50 -51 19z"/>
<path d="M6120 5380 c0 -5 5 -10 10 -10 6 0 10 5 10 10 0 6 -4 10 -10 10 -5 0
-10 -4 -10 -10z"/>
<path d="M6220 5340 c-12 -22 -5 -44 12 -34 6 4 14 0 19 -7 7 -10 9 -3 7 20
-3 40 -22 51 -38 21z"/>
<path d="M6840 5343 c0 -16 24 -70 111 -247 35 -71 35 -75 8 -129 -44 -86
-206 -286 -331 -409 -43 -43 -59 -68 -42 -68 19 0 151 90 219 150 44 38 85 70
91 70 38 0 141 209 199 402 35 114 35 124 4 120 -23 -3 -125 45 -189 88 -14
10 -35 22 -47 29 -20 10 -23 9 -23 -6z"/>
<path d="M6322 5204 c-37 -26 -28 -42 23 -39 51 3 92 25 81 43 -10 17 -78 15
-104 -4z"/>
<path d="M6580 5080 c0 -6 7 -10 15 -10 8 0 15 2 15 4 0 2 -7 6 -15 10 -8 3
-15 1 -15 -4z"/>
<path d="M5305 4972 c-84 -82 -285 -246 -327 -268 -57 -30 -159 -16 -378 49
-47 14 -93 29 -102 32 -10 4 -18 3 -18 -2 0 -14 23 -33 132 -105 53 -36 135
-84 181 -107 l85 -41 47 -87 c26 -48 59 -105 74 -127 14 -23 30 -50 36 -62 14
-28 115 -148 139 -164 18 -11 19 -9 12 42 -3 29 -11 80 -18 114 -7 40 -8 73
-1 100 8 36 11 39 43 38 19 -1 78 -11 130 -22 164 -35 510 -58 510 -34 0 5
-30 19 -67 32 -130 44 -414 160 -458 186 -69 40 -71 48 -31 166 54 160 96 298
96 314 0 24 -13 16 -85 -54z"/>
<path d="M6080 4950 c0 -11 7 -20 15 -20 8 0 15 9 15 20 0 11 -7 20 -15 20 -8
0 -15 -9 -15 -20z"/>
<path d="M4778 4905 c-80 -44 -21 -140 85 -137 63 1 99 31 95 76 -6 62 -112
97 -180 61z"/>
<path d="M3980 4850 c0 -6 9 -28 20 -50 11 -22 20 -45 20 -52 0 -12 17 -58 67
-179 18 -44 10 -79 -18 -79 -20 0 -30 7 -72 46 -12 11 -31 27 -41 35 -19 14
-19 13 -3 -17 44 -85 252 -281 427 -401 55 -39 221 -133 233 -133 17 0 -5 20
-61 57 -31 20 -79 58 -105 82 -77 73 -54 106 58 83 27 -6 114 -16 191 -22 113
-9 147 -9 165 1 22 12 19 14 -51 30 -180 43 -216 52 -224 60 -6 5 -20 9 -33 9
-37 0 -255 100 -290 133 -18 17 -33 34 -33 38 0 12 -119 206 -179 292 -50 72
-71 92 -71 67z"/>
<path d="M6027 4824 c-4 -4 -7 -14 -7 -23 0 -11 3 -12 11 -4 6 6 10 16 7 23
-2 6 -7 8 -11 4z"/>
<path d="M5941 4734 c0 -11 3 -14 6 -6 3 7 2 16 -1 19 -3 4 -6 -2 -5 -13z"/>
<path d="M3930 4692 c0 -20 66 -102 82 -102 19 0 -3 54 -35 88 -35 36 -47 40
-47 14z"/>
<path d="M5698 3092 c-58 -4 -59 -7 -58 -190 1 -177 6 -204 34 -200 18 3 21
11 24 63 3 66 11 75 63 75 57 0 69 21 69 127 0 118 -17 134 -132 125z m70 -64
c14 -14 16 -106 3 -126 -5 -8 -21 -12 -37 -10 -28 3 -29 5 -32 62 -2 32 -1 65
2 72 7 17 48 18 64 2z"/>
<path d="M5935 3091 l-30 -6 0 -190 0 -190 93 -3 c87 -3 92 -2 92 17 0 23 -18
29 -90 33 l-45 3 -3 43 c-4 55 10 72 59 72 41 0 53 9 43 34 -4 11 -19 16 -43
16 -45 0 -61 14 -61 56 0 56 8 64 60 64 61 0 80 7 80 31 0 13 -7 19 -22 20
-13 0 -41 1 -63 3 -22 1 -53 0 -70 -3z"/>
<path d="M6258 3093 c-10 -2 -18 -6 -18 -7 0 -2 -18 -82 -40 -179 -47 -205
-47 -209 -19 -205 14 2 25 15 33 38 11 34 13 35 60 35 47 0 49 -1 60 -35 8
-25 18 -36 35 -38 23 -4 23 -2 17 45 -4 26 -11 62 -15 78 -5 17 -14 57 -21 90
-32 152 -46 189 -70 184 -3 -1 -13 -3 -22 -6z m30 -125 c5 -7 13 -38 16 -69 8
-63 -6 -86 -45 -74 -20 7 -21 11 -15 67 10 87 20 105 44 76z"/>
<path d="M6733 3093 c-10 -4 -13 -53 -13 -199 l0 -195 93 3 c84 3 92 5 92 23
0 17 -8 21 -60 25 l-60 5 0 55 0 55 48 3 c42 3 47 6 47 27 0 21 -5 24 -47 27
l-48 3 -3 58 -3 57 61 0 c46 0 62 4 67 16 3 8 1 20 -4 25 -10 10 -148 19 -170
12z"/>
<path d="M7917 3093 l-37 -4 2 -192 3 -192 60 -3 c32 -2 69 -1 81 2 32 8 47
55 40 123 -7 73 -7 77 0 141 7 64 0 98 -24 110 -24 13 -80 19 -125 15z m93
-83 c11 -45 0 -80 -27 -86 -31 -8 -45 6 -49 48 -4 56 4 70 39 66 24 -2 33 -9
37 -28z m3 -175 c12 -44 -6 -85 -38 -85 -27 0 -45 30 -45 74 0 54 68 63 83 11z"/>
<path d="M2864 3077 c-2 -7 -3 -94 -2 -192 l3 -180 72 -3 c96 -4 113 11 113
101 0 35 -5 68 -12 75 -9 9 -9 18 0 37 7 14 12 50 12 80 0 79 -19 95 -110 95
-48 0 -72 -4 -76 -13z m121 -98 c0 -51 -1 -54 -27 -57 -35 -4 -52 27 -43 77 8
42 20 52 49 41 18 -6 21 -16 21 -61z m0 -169 c0 -55 0 -55 -32 -58 -28 -3 -33
1 -39 22 -3 15 -3 42 0 62 7 32 10 35 39 32 32 -3 32 -3 32 -58z"/>
<path d="M3125 3068 c-3 -13 -4 -99 -3 -193 3 -165 4 -170 24 -173 14 -2 23 3
26 16 4 15 4 298 -1 355 -2 26 -39 22 -46 -5z"/>
<path d="M3325 3081 c-6 -11 -22 -79 -55 -241 -11 -52 -23 -106 -26 -118 -6
-21 -4 -23 17 -20 16 2 27 13 34 33 13 39 22 45 68 45 34 0 40 -4 53 -35 15
-36 35 -52 52 -41 5 3 -1 53 -15 113 -13 59 -27 131 -33 158 -19 100 -24 110
-57 113 -17 2 -34 -2 -38 -7z m53 -132 c7 -13 11 -46 10 -74 -3 -44 -6 -50
-27 -53 -39 -6 -44 9 -30 87 13 74 24 84 47 40z"/>
<path d="M3564 3069 c-15 -17 -19 -36 -19 -93 0 -66 2 -72 24 -81 88 -36 106
-50 109 -83 4 -41 -14 -64 -47 -60 -19 2 -27 11 -33 36 -6 22 -15 32 -27 32
-36 0 -41 -54 -10 -94 17 -22 28 -26 73 -26 30 0 61 6 74 16 20 13 22 24 22
94 l0 78 -62 24 -63 24 0 49 c0 47 2 50 27 53 21 3 30 -3 43 -27 9 -19 23 -31
35 -31 16 0 20 7 20 38 0 54 -23 72 -92 72 -43 0 -59 -4 -74 -21z"/>
<path d="M4215 3068 c4 -13 23 -61 43 -108 29 -67 37 -103 42 -170 4 -77 7
-85 25 -85 18 0 21 9 26 85 4 67 14 107 47 190 39 100 40 105 21 108 -26 5
-26 5 -54 -65 -32 -77 -50 -76 -82 5 -21 52 -29 62 -50 62 -21 0 -23 -3 -18
-22z"/>
<path d="M4516 3074 c-13 -13 -16 -43 -16 -175 0 -190 4 -199 94 -199 91 0 99
17 94 213 -4 166 -10 177 -99 177 -39 0 -63 -5 -73 -16z m119 -56 c3 -13 4
-74 3 -137 -3 -125 -11 -140 -61 -127 l-27 6 0 134 c0 73 3 136 7 139 3 4 21
7 39 7 27 0 35 -5 39 -22z"/>
<path d="M4754 3066 c-3 -13 -4 -91 -2 -174 4 -183 9 -192 98 -192 89 0 90 3
90 213 0 170 -1 177 -20 177 -14 0 -20 -7 -20 -21 0 -12 -1 -84 -3 -160 -2
-151 -7 -162 -57 -157 l-25 3 -2 145 c-2 80 -5 155 -8 168 -7 30 -43 29 -51
-2z"/>
<path d="M5017 3083 c-16 -15 -5 -33 26 -41 l32 -8 3 -168 c2 -167 3 -167 25
-164 22 3 22 6 25 162 2 155 9 190 35 181 19 -7 40 12 34 29 -5 13 -23 16 -90
16 -46 0 -87 -3 -90 -7z"/>
<path d="M5255 3078 c-3 -8 -4 -95 -3 -193 l3 -180 25 0 c24 0 25 3 30 80 l5
80 35 0 35 0 5 -80 c4 -72 7 -80 25 -80 19 0 20 8 23 193 l2 193 -22 -3 c-21
-3 -23 -9 -26 -76 -3 -66 -5 -74 -27 -84 -44 -20 -54 -6 -57 79 -3 72 -5 78
-26 81 -12 2 -24 -3 -27 -10z"/>
<path d="M6476 3068 c-13 -18 -16 -53 -16 -175 0 -184 4 -193 95 -193 67 0 95
22 95 74 0 55 -34 57 -57 4 -13 -30 -49 -38 -71 -16 -15 15 -16 231 -2 259 17
31 60 25 73 -11 8 -21 18 -30 34 -30 20 0 23 5 23 35 0 54 -28 75 -99 75 -51
0 -62 -3 -75 -22z"/>
<path d="M7127 3072 c-14 -16 -17 -43 -17 -175 0 -188 4 -197 94 -197 47 0 57
4 75 26 23 30 27 64 9 82 -19 19 -28 14 -44 -23 -10 -26 -20 -35 -37 -35 -42
0 -47 17 -47 145 0 131 5 145 51 145 22 0 28 -6 33 -31 5 -25 10 -30 28 -27
31 4 35 46 8 81 -19 24 -28 27 -79 27 -43 0 -62 -5 -74 -18z"/>
<path d="M7374 3077 c-2 -7 -3 -94 -2 -192 l3 -180 71 -5 c89 -6 104 -3 104
20 0 21 -19 30 -65 30 -67 0 -65 -4 -65 176 0 158 -1 164 -20 164 -11 0 -23
-6 -26 -13z"/>
<path d="M7624 3076 c-3 -8 -4 -89 -2 -181 4 -193 5 -195 95 -195 40 0 58 5
73 20 19 19 20 31 18 193 -3 164 -4 172 -23 172 -19 0 -20 -8 -23 -154 -1 -93
-7 -160 -13 -168 -14 -16 -55 -17 -65 -2 -4 6 -8 73 -9 148 -4 194 -2 181 -25
181 -11 0 -23 -6 -26 -14z"/>
<path d="M3940 2875 c0 -22 4 -25 35 -25 31 0 35 3 35 25 0 22 -4 25 -35 25
-31 0 -35 -3 -35 -25z"/>
<path d="M5317 2438 c-4 -14 -3 -37 2 -50 l9 -23 7 28 c4 16 3 38 -2 50 -10
21 -10 21 -16 -5z"/>
<path d="M5445 2436 c-3 -9 -7 -23 -10 -31 -2 -8 0 -17 5 -20 4 -3 11 9 15 26
7 32 -1 53 -10 25z"/>
<path d="M5517 2411 c-3 -11 -1 -23 3 -26 14 -8 22 13 12 31 -8 14 -10 14 -15
-5z"/>
<path d="M5598 2386 c-19 -27 -15 -36 12 -29 20 5 34 29 24 44 -8 14 -18 10
-36 -15z"/>
<path d="M5100 2374 c0 -12 7 -27 15 -34 20 -17 21 9 0 36 -14 19 -14 19 -15
-2z"/>
<path d="M5270 2280 c-13 -8 -13 -10 2 -10 9 0 20 5 23 10 8 13 -5 13 -25 0z"/>
<path d="M5760 2264 c0 -8 5 -12 10 -9 6 3 10 10 10 16 0 5 -4 9 -10 9 -5 0
-10 -7 -10 -16z"/>
<path d="M4895 2261 c-3 -5 -1 -12 5 -16 5 -3 10 1 10 9 0 18 -6 21 -15 7z"/>
<path d="M5930 2114 c0 -17 22 -14 28 4 2 7 -3 12 -12 12 -9 0 -16 -7 -16 -16z"/>
<path d="M5660 2090 c0 -6 14 -13 30 -17 17 -3 38 -15 46 -27 l15 -21 -3 23
c-2 18 -14 28 -43 38 -48 17 -45 16 -45 4z"/>
<path d="M4810 2071 c0 -5 7 -14 15 -21 12 -10 15 -10 15 3 0 8 -7 17 -15 21
-8 3 -15 2 -15 -3z"/>
<path d="M5438 2023 c7 -3 16 -2 19 1 4 3 -2 6 -13 5 -11 0 -14 -3 -6 -6z"/>
<path d="M4760 1995 c0 -8 -7 -15 -15 -15 -20 0 -19 -16 1 -24 8 -3 24 3 35
13 l21 19 -21 11 c-17 10 -21 9 -21 -4z"/>
<path d="M6015 1910 c-18 -8 -17 -9 8 -9 15 -1 27 4 27 9 0 12 -8 12 -35 0z"/>
<path d="M4831 1874 c0 -11 3 -14 6 -6 3 7 2 16 -1 19 -3 4 -6 -2 -5 -13z"/>
<path d="M4690 1815 c0 -17 9 -19 28 -6 11 7 10 10 -3 15 -23 9 -25 8 -25 -9z"/>
<path d="M6033 1816 c3 -7 0 -19 -6 -25 -6 -6 -7 -14 -3 -18 8 -8 46 32 46 48
0 5 -9 9 -21 9 -14 0 -19 -5 -16 -14z"/>
<path d="M5363 1773 c-25 -5 -73 -57 -73 -80 0 -50 51 -103 100 -103 26 0 78
49 81 75 5 58 -2 76 -33 95 -18 11 -37 19 -43 19 -5 -1 -20 -4 -32 -6z"/>
<path d="M5841 1624 c0 -11 3 -14 6 -6 3 7 2 16 -1 19 -3 4 -6 -2 -5 -13z"/>
<path d="M4686 1621 c-8 -12 21 -34 33 -27 6 4 8 13 4 21 -6 17 -29 20 -37 6z"/>
<path d="M6020 1620 c-12 -8 -9 -10 13 -10 15 0 27 5 27 10 0 13 -20 13 -40 0z"/>
<path d="M4726 1475 c-4 -11 1 -15 19 -15 16 0 25 6 25 15 0 8 -9 15 -19 15
-10 0 -21 -7 -25 -15z"/>
<path d="M5720 1340 c-13 -8 -13 -10 2 -10 9 0 20 5 23 10 8 13 -5 13 -25 0z"/>
<path d="M6076 1293 c-4 -4 -55 -8 -114 -8 -104 0 -108 -1 -153 -32 -51 -35
-116 -110 -105 -121 4 -3 21 1 39 10 39 21 86 25 149 15 89 -15 156 23 203
113 13 24 13 30 2 30 -8 0 -17 -3 -21 -7z"/>
<path d="M4680 1261 c0 -19 92 -121 113 -126 32 -8 73 -8 152 0 55 6 78 4 109
-9 22 -9 41 -14 44 -12 8 9 -93 108 -130 127 -42 22 -103 24 -160 7 -32 -9
-44 -9 -74 5 -39 19 -54 21 -54 8z"/>
<path d="M5350 1211 c0 -10 19 -25 25 -20 1 2 -3 10 -11 17 -8 7 -14 8 -14 3z"/>
<path d="M5177 1143 c-3 -5 -4 -24 -2 -43 2 -19 3 -52 4 -72 1 -46 19 -50 23
-6 4 45 33 50 42 8 10 -51 25 -24 21 38 -3 31 -4 61 -5 65 0 18 -20 -6 -20
-24 0 -32 -34 -19 -38 14 -3 26 -16 36 -25 20z"/>
<path d="M5312 1068 c4 -106 22 -105 26 2 2 67 0 80 -13 80 -13 0 -15 -13 -13
-82z"/>
<path d="M5433 1113 c-4 -10 2 -22 15 -33 12 -10 19 -20 16 -23 -12 -11 8 -67
23 -67 9 0 13 6 9 15 -3 9 -13 40 -22 70 -16 56 -29 68 -41 38z"/>
<path d="M5550 1091 c0 -6 15 -24 33 -40 25 -25 33 -28 35 -15 2 9 -6 27 -19
40 -23 24 -49 32 -49 15z"/>
<path d="M5805 1075 c-5 -2 -31 -6 -58 -10 -44 -6 -58 -25 -18 -25 22 0 150
-77 173 -104 19 -23 25 -7 8 24 -17 32 20 60 77 60 41 0 45 2 33 14 -25 24
-180 53 -215 41z"/>
<path d="M4845 1035 c-27 -8 -61 -20 -74 -27 -23 -12 -20 -13 40 -18 l64 -5 3
-37 c2 -21 7 -38 12 -38 5 0 24 14 42 31 18 17 57 44 85 61 29 16 56 34 59 39
8 14 -175 9 -231 -6z"/>
</g>
</svg>
