<?xml version="1.0" standalone="no"?>
<!DOCTYPE svg PUBLIC "-//W3C//DTD SVG 20010904//EN"
 "http://www.w3.org/TR/2001/REC-SVG-20010904/DTD/svg10.dtd">
<svg version="1.0" xmlns="http://www.w3.org/2000/svg"
 width="1280.000000pt" height="684.000000pt" viewBox="0 0 1280.000000 684.000000"
 preserveAspectRatio="xMidYMid meet">
<metadata>
Created by potrace 1.15, written by Peter Selinger 2001-2017
</metadata>
<g transform="translate(0.000000,684.000000) scale(0.100000,-0.100000)"
fill="#000000" stroke="none">
<path d="M4570 6765 l0 -25 -274 0 c-165 0 -277 4 -281 10 -8 13 -3559 6
-3756 -7 -159 -11 -192 -22 -233 -76 -30 -40 -29 -121 1 -163 38 -53 75 -64
217 -64 l126 0 0 -3169 0 -3169 49 18 c27 11 167 90 312 176 145 86 334 198
419 249 85 50 239 142 342 203 103 62 202 121 220 131 18 10 134 78 257 151
208 124 226 133 252 123 25 -10 198 -111 874 -513 610 -362 896 -531 909 -536
14 -6 16 292 18 3162 l3 3169 273 3 272 2 0 -3150 c0 -1732 1 -3150 3 -3150
18 0 125 52 203 98 54 33 167 99 249 147 83 48 182 107 220 130 39 23 126 75
195 115 69 40 179 106 245 145 66 39 174 103 240 142 66 39 199 117 295 174
96 56 182 102 190 102 9 -1 88 -44 176 -96 341 -202 1101 -651 1346 -795 141
-84 263 -155 272 -158 15 -6 16 278 18 3142 l3 3149 298 3 297 2 0 -3150 c0
-1732 2 -3150 4 -3150 27 0 164 79 1371 793 428 253 454 268 465 262 3 -1 407
-239 898 -529 491 -290 897 -524 902 -521 7 4 10 1098 10 3151 l0 3144 108 0
c92 0 112 3 146 23 101 57 98 191 -4 251 -26 16 -58 21 -147 24 -111 4 -113 5
-113 28 l0 24 -1820 0 -1820 0 0 -25 0 -25 -300 0 -300 0 0 25 0 25 -1825 0
-1825 0 0 -25z"/>
</g>
</svg>
